<svg id="Layer_1" data-name="Layer 1" xmlns="http://www.w3.org/2000/svg" width="231.194" height="159.014" viewBox="0 0 231.194 159.014">
  <path id="Path_1" data-name="Path 1" d="M3.174,240.309a3.229,3.229,0,0,1-2.266-.833A2.807,2.807,0,0,1,0,237.267a2.745,2.745,0,0,1,.911-2.161,3.307,3.307,0,0,1,2.266-.807H26.3a3.255,3.255,0,0,1,2.266.833,2.823,2.823,0,0,1,.911,2.188,2.729,2.729,0,0,1-.911,2.161,3.281,3.281,0,0,1-2.266.807Zm11.51,30.469a3.287,3.287,0,0,1-2.4-.911,3.021,3.021,0,0,1-.937-2.266V237.392h6.771V267.6a2.99,2.99,0,0,1-.937,2.266,3.448,3.448,0,0,1-2.5.911Z" transform="translate(0.006 -112.29)" fill="#00fddc"/>
  <path id="Path_2" data-name="Path 2" d="M68.329,238.628a4.106,4.106,0,0,1-2.5-.573,2.434,2.434,0,0,1-.729-2.031v-.99a2.308,2.308,0,0,1,.807-2.057,4.453,4.453,0,0,1,2.474-.547,4.231,4.231,0,0,1,2.552.573,2.475,2.475,0,0,1,.729,2.031v.99a2.348,2.348,0,0,1-.781,2.057A4.573,4.573,0,0,1,68.329,238.628ZM71.506,266.7a3.125,3.125,0,0,1-.885,2.266,3.208,3.208,0,0,1-4.479,0,3.125,3.125,0,0,1-.885-2.266V245.19a3.125,3.125,0,0,1,.885-2.266,3.208,3.208,0,0,1,4.479,0,3.125,3.125,0,0,1,.885,2.266Z" transform="translate(-31.191 -111.389)" fill="#00fddc"/>
  <path id="Path_3" data-name="Path 3" d="M104.382,249.839q4.167,0,6.146,2.005a9.922,9.922,0,0,1,2.6,5.182l-.885-.469.417-.833a11.979,11.979,0,0,1,1.927-2.578,11.809,11.809,0,0,1,3.125-2.344,10.256,10.256,0,0,1,9.87.651,8.229,8.229,0,0,1,2.682,4.3,22.812,22.812,0,0,1,.729,5.963v13.333a3.125,3.125,0,0,1-.885,2.266,3.208,3.208,0,0,1-4.479,0,3.125,3.125,0,0,1-.885-2.266V261.714a10.775,10.775,0,0,0-.417-3.1,4.286,4.286,0,0,0-1.51-2.214,5.093,5.093,0,0,0-3.125-.833,6.551,6.551,0,0,0-3.385.833,5.416,5.416,0,0,0-2.083,2.214,6.734,6.734,0,0,0-.7,3.1v13.333a3.125,3.125,0,0,1-.885,2.266,3.208,3.208,0,0,1-4.479,0,3.125,3.125,0,0,1-.885-2.266V261.714a10.775,10.775,0,0,0-.417-3.1,4.286,4.286,0,0,0-1.51-2.214,5.093,5.093,0,0,0-3.125-.833,6.551,6.551,0,0,0-3.385.833,5.416,5.416,0,0,0-2.083,2.214,6.734,6.734,0,0,0-.7,3.1v13.333a3.125,3.125,0,0,1-.885,2.266,3.208,3.208,0,0,1-4.479,0,3.125,3.125,0,0,1-.885-2.266v-21.51a3.125,3.125,0,0,1,.885-2.266,3.208,3.208,0,0,1,4.479,0,3.125,3.125,0,0,1,.885,2.266v2.24l-.781-.156a11.623,11.623,0,0,1,1.3-1.9,11.166,11.166,0,0,1,2.031-1.9,10.848,10.848,0,0,1,2.656-1.432A8.963,8.963,0,0,1,104.382,249.839Z" transform="translate(-43.025 -119.736)" fill="#00fddc"/>
  <path id="Path_4" data-name="Path 4" d="M193.32,278.751a15.265,15.265,0,0,1-7.682-1.849,12.714,12.714,0,0,1-5-5.026,14.625,14.625,0,0,1-1.745-7.187,15.766,15.766,0,0,1,1.9-7.99,13.432,13.432,0,0,1,4.974-5.078,12.87,12.87,0,0,1,6.51-1.771,11.865,11.865,0,0,1,5.026,1.094,13.833,13.833,0,0,1,4.193,2.995,14.666,14.666,0,0,1,2.891,4.4,13.443,13.443,0,0,1,1.068,5.312,2.682,2.682,0,0,1-.99,2.031,3.312,3.312,0,0,1-2.187.781h-19.9l-1.562-5.208h19.114l-1.146,1.042v-1.432a4.8,4.8,0,0,0-1.042-2.708,7.042,7.042,0,0,0-2.4-1.9,6.844,6.844,0,0,0-3.047-.7,9.9,9.9,0,0,0-2.917.417,5.614,5.614,0,0,0-2.344,1.406,6.807,6.807,0,0,0-1.563,2.656,13.1,13.1,0,0,0-.573,4.219,9.1,9.1,0,0,0,1.172,4.766,8.01,8.01,0,0,0,6.927,4.005,12.135,12.135,0,0,0,3.073-.312,6.9,6.9,0,0,0,1.849-.755c.469-.292.891-.547,1.276-.755a3.968,3.968,0,0,1,1.771-.469,2.6,2.6,0,0,1,2.656,2.6,3.255,3.255,0,0,1-1.458,2.552,12.105,12.105,0,0,1-3.8,2.005A15.164,15.164,0,0,1,193.32,278.751Z" transform="translate(-85.714 -119.742)" fill="#00fddc"/>
  <path id="Path_5" data-name="Path 5" d="M257.122,270.843a19.7,19.7,0,0,1-7.448-1.38,17.526,17.526,0,0,1-9.844-9.87,21.068,21.068,0,0,1,0-15,17.526,17.526,0,0,1,9.844-9.865,19.792,19.792,0,0,1,7.474-1.38,21.506,21.506,0,0,1,5.521.7,15.494,15.494,0,0,1,4.74,2.109.9.9,0,0,1,.365.391,1.239,1.239,0,0,1,.1.495.9.9,0,0,1-.365.781,1.131,1.131,0,0,1-.625.26.8.8,0,0,1-.365-.078,2.652,2.652,0,0,0-.312-.13,20.152,20.152,0,0,0-4.219-1.771,17.188,17.188,0,0,0-4.844-.677,16.781,16.781,0,0,0-8.568,2.161,15.511,15.511,0,0,0-5.833,5.911,18.614,18.614,0,0,0,0,17.187,15.224,15.224,0,0,0,5.833,5.911,16.87,16.87,0,0,0,8.568,2.135,16.67,16.67,0,0,0,5.13-.807,17.267,17.267,0,0,0,4.453-2.109l-.208.938V253.739l.729.677h-10.13a1.068,1.068,0,0,1-1.042-1.042.979.979,0,0,1,.313-.755,1.042,1.042,0,0,1,.729-.286h10.417a.979.979,0,0,1,.755.313,1.042,1.042,0,0,1,.286.729v13.073a1.3,1.3,0,0,1-.1.469,1.151,1.151,0,0,1-.365.469,20.5,20.5,0,0,1-5.13,2.5A18.591,18.591,0,0,1,257.122,270.843Z" transform="translate(-114.255 -111.835)" fill="#00fddc"/>
  <path id="Path_6" data-name="Path 6" d="M330.735,254.439a.979.979,0,0,1,.755.313,1.042,1.042,0,0,1,.286.729v15.156q0,5.052-2.839,7.578a12.4,12.4,0,0,1-15,0q-2.833-2.526-2.839-7.578V255.481a1.068,1.068,0,0,1,1.042-1.042.979.979,0,0,1,.755.313,1.041,1.041,0,0,1,.286.729v15.156a7.9,7.9,0,0,0,2.214,6.042,8.423,8.423,0,0,0,6.016,2.083,8.51,8.51,0,0,0,6.068-2.083,7.874,7.874,0,0,0,2.213-6.042V255.481a1.042,1.042,0,0,1,.286-.729A.969.969,0,0,1,330.735,254.439Z" transform="translate(-149.067 -121.941)" fill="#00fddc"/>
  <path id="Path_7" data-name="Path 7" d="M368.432,279.642a.98.98,0,0,1-.755-.312,1.042,1.042,0,0,1-.286-.729V254.694a1.068,1.068,0,0,1,1.042-1.042.969.969,0,0,1,.755.313,1.042,1.042,0,0,1,.286.729v8.8l-.885,1.354a12.816,12.816,0,0,1,.682-4.135,13.78,13.78,0,0,1,2.057-3.88,10.938,10.938,0,0,1,3.307-2.917,8.922,8.922,0,0,1,4.505-1.12,6.589,6.589,0,0,1,1.563.208.958.958,0,0,1,.833.99,1.162,1.162,0,0,1-.26.781.833.833,0,0,1-.677.312,1.693,1.693,0,0,1-.755-.234,2.769,2.769,0,0,0-1.276-.234,6.25,6.25,0,0,0-3.281.99,11.683,11.683,0,0,0-2.943,2.63,14.061,14.061,0,0,0-2.109,3.568,9.964,9.964,0,0,0-.781,3.75v13.021a1.068,1.068,0,0,1-1.042,1.042Z" transform="translate(-176.039 -121.154)" fill="#00fddc"/>
  <path id="Path_8" data-name="Path 8" d="M423.83,254.439a.969.969,0,0,1,.755.313,1.041,1.041,0,0,1,.286.729v15.156q0,5.052-2.839,7.578a12.389,12.389,0,0,1-14.995,0q-2.844-2.526-2.839-7.578V255.481a1.068,1.068,0,0,1,1.042-1.042.969.969,0,0,1,.755.313,1.042,1.042,0,0,1,.286.729v15.156a7.9,7.9,0,0,0,2.214,6.042,9.8,9.8,0,0,0,12.083,0,7.925,7.925,0,0,0,2.214-6.042V255.481a1.042,1.042,0,0,1,.286-.729A.979.979,0,0,1,423.83,254.439Z" transform="translate(-193.677 -121.941)" fill="#00fddc"/>
  <path id="Path_9" data-name="Path 9" d="M134.1,81.609c4.87-16.146,12.531-19.792,29.776-26.63,11.7-4.266,28.432-8.552,35.745-19.354,3.812-5.635,4.583-12.016,3.62-18.495A50.9,50.9,0,0,0,178.935,11c-9.536,0-20.1,1.182-28.38,6.458a50.445,50.445,0,0,0-8.1,6.771C132.909,33.672,129.3,47.015,129.3,59.307c0,6.2.151,13.052,2.375,19.057.464,1.24,1.875,2.036,2.427,3.255" transform="translate(-61.953 -5.292)" fill="#424342" fill-rule="evenodd"/>
  <path id="Path_10" data-name="Path 10" d="M131.093,75.339c-13.932-49.7,38.338-73.4,63.343-63.859-9.115,21.521-44.3,17.213-50.359,35.87,9.557-15.979,42.854-10.474,53.416-32.515,8.38,38.7-56.927,24.7-66.4,60.5" transform="translate(-61.7 -4.528)" fill="#00fddc" fill-rule="evenodd"/>
  <path id="Path_11" data-name="Path 11" d="M247.076,81.775c-3.646-13.292-9.99-19.995-29.8-26.8-11.7-4.266-28.432-8.562-35.745-19.354-3.833-5.667-4.594-12.083-3.609-18.6A51,51,0,0,1,202.045,11c12.9,0,26.88,3.521,36.656,13.182,9.547,9.443,12.974,22.833,12.974,35.125.823,7.979,3.411,18.75-4.6,22.479" transform="translate(-85.064 -5.292)" fill="#424342" fill-rule="evenodd"/>
  <path id="Path_12" data-name="Path 12" d="M254.523,75.344c13.937-49.692-38.333-73.4-63.338-63.854,9.115,21.521,44.557,6.005,50.161,29.838-4.26-18.13-42.656-4.443-53.218-26.484-8.385,38.7,56.927,24.7,66.4,60.5" transform="translate(-89.787 -4.532)" fill="#00fddc" fill-rule="evenodd"/>
  <path id="Path_13" data-name="Path 13" d="M213.4,48.463a80.2,80.2,0,0,1-15.2-6.771,31.448,31.448,0,0,1-3.443-2.432,18.684,18.684,0,0,1-7.219-12.62c-.63,5.911.677,10.448,3.318,14.062a20.315,20.315,0,0,0,2.2,2.547c3.49,3.443,8.333,5.99,13.792,8.224,2.193.9,4.479,1.745,6.818,2.578,16.281,5.8,35.078,10.99,40.474,28.177a52.851,52.851,0,0,0,2.208-12.979,63.213,63.213,0,0,1-1.828,8.771c-4.26-16.1-19.818-22.13-34.9-27.411-2.083-.734-4.167-1.453-6.25-2.187" transform="translate(-89.784 -12.786)" fill="#00fddc" fill-rule="evenodd"/>
  <path id="Path_14" data-name="Path 14" d="M228.548,17.947c.521.214,1.042.443,1.563.672a57.337,57.337,0,0,1,5.375,2.745c12.068,6.953,22.146,18.448,24.755,34.057A46.812,46.812,0,0,0,252.9,34.114,53.161,53.161,0,0,0,235.23,18.13a61.062,61.062,0,0,0-8.052-3.823c-.406-.135-.812-.266-1.224-.391a51.416,51.416,0,0,0-30.1-.047c.224.448.458.88.7,1.3,7.812-2.536,18.005-2.052,27.943,1.255q2.036.677,4.057,1.521" transform="translate(-93.842 -5.599)" fill="#9fe" fill-rule="evenodd"/>
  <path id="Path_15" data-name="Path 15" d="M129.49,62.787c2.083-16.609,12.5-28.771,25.057-36.01.047-.885.13-1.781.245-2.677A51.312,51.312,0,0,0,133.7,45.975a47.218,47.218,0,0,0-4.208,16.818" transform="translate(-62.045 -11.569)" fill="#9fe" fill-rule="evenodd"/>
  <path id="Path_16" data-name="Path 16" d="M163.418,69.411C149.278,74.5,135.356,80.75,131.361,95.823a63.486,63.486,0,0,1-2.031-10.5A52.957,52.957,0,0,0,131.658,99.5c5.276-17.417,24.193-22.635,40.557-28.463a53.127,53.127,0,0,1-5.156-2.906A31.812,31.812,0,0,1,159.887,62q-1.281.453-2.505.937l.479.719a26.8,26.8,0,0,0,5.552,5.766" transform="translate(-61.968 -29.73)" fill="#00fddc" fill-rule="evenodd"/>
  <path id="Path_17" data-name="Path 17" d="M178.555,44.974c.672-.333,1.365-.661,2.083-.979a24.249,24.249,0,0,1-3.719-14.755l-.422.25a26.006,26.006,0,0,0,2.083,15.484" transform="translate(-84.406 -14.032)" fill="#00fddc" fill-rule="evenodd"/>
  <path id="Path_18" data-name="Path 18" d="M226.033,53.577h-2.865a47.828,47.828,0,1,1-14.005-33.817,47.827,47.827,0,0,1,14.005,33.817H228.9a53.541,53.541,0,1,0-15.682,37.87A53.539,53.539,0,0,0,228.9,53.577Z" transform="translate(-58.364 -0.041)" fill="#424342"/>
  <path id="Path_19" data-name="Path 19" d="M180,159.254a13.352,13.352,0,0,1,2.7-2.8,14.994,14.994,0,0,1,10.9-2.844,20.437,20.437,0,0,1,11.24,5.057,27.452,27.452,0,0,1,5.661,6.9l.063.1h0c.964,1.635,2.37,3.646,4.068,4.547a4.093,4.093,0,0,0,2.6.328c3.979-.792,7.161-5.594,6.979-10.224l.74.823a14.062,14.062,0,0,1-1.99,20.51c-5.448,4.208-13.719,5.151-20.375,4.557-7.005-.625-14.984-3.125-20.083-8.156a18.692,18.692,0,0,1-1.729-1.906c-.276-.354-.521-.724-.781-1.1-.25.375-.521.745-.786,1.1a18.1,18.1,0,0,1-1.708,1.922c-5.1,5.01-13.078,7.531-20.083,8.156-6.656.594-14.927-.349-20.37-4.557a14.062,14.062,0,0,1-1.995-20.51l.74-.823c-.385,5.1,4.6,12.172,9.568,9.9a11.971,11.971,0,0,0,4.063-4.547h0l.063-.1a27.569,27.569,0,0,1,5.661-6.9,20.458,20.458,0,0,1,11.24-5.057,15,15,0,0,1,10.9,2.844,13.54,13.54,0,0,1,2.708,2.8" transform="translate(-63.014 -73.568)" fill="#424342"/>
  <path id="Path_20" data-name="Path 20" d="M248.479,166.926a15.51,15.51,0,0,0-8.526-3.865,10.021,10.021,0,0,0-7.292,1.828,8.3,8.3,0,0,0-2.172,2.51q-.141.26-.266.521c13.8-1.734,18.8,12.5,26.469,13.87-10.536.13-15.469-13.646-27.224-11.234a9.776,9.776,0,0,0,2.177,7.01,14.061,14.061,0,0,0,1.255,1.411c5.042,4.953,13.542,6.839,20.6,6.891h0c4.661-.042,9.812-.984,13.3-3.682a10.141,10.141,0,0,0,1.042-.937,10.006,10.006,0,0,0,2.458-4.01l.12-.4-.12.135a8,8,0,0,1-1.4,1.219c-3.057,2.083-6.365,2.687-9.7.927-4.661-2.469-6.656-8.667-10.734-12.2" transform="translate(-109.935 -78.109)" fill="#00fddc" fill-rule="evenodd"/>
  <path id="Path_21" data-name="Path 21" d="M158.373,172.566a22.59,22.59,0,0,1,4.609-5.641,15.479,15.479,0,0,1,8.521-3.865,10.015,10.015,0,0,1,7.292,1.828,8.3,8.3,0,0,1,2.172,2.51c.1.172.187.344.271.521-13.8-1.734-18.807,12.5-26.469,13.87,10.531.13,15.463-13.646,27.219-11.234a9.771,9.771,0,0,1-2.151,7.01,14.093,14.093,0,0,1-1.26,1.411c-5.042,4.953-13.542,6.838-20.6,6.891h0c-4.661-.042-9.812-.984-13.3-3.682a10.682,10.682,0,0,1-1.042-.937,10.062,10.062,0,0,1-2.458-4.01l-.12-.4.125.135a7.975,7.975,0,0,0,1.4,1.219c3.057,2.083,6.37,2.688,9.7.927,2.635-1.4,4.651-4.026,6.13-6.562" transform="translate(-67.584 -78.109)" fill="#00fddc" fill-rule="evenodd"/>
  <path id="Path_22" data-name="Path 22" d="M162.478,189.848c-1.271.125-2.526.188-3.74.2H157.6a26.717,26.717,0,0,1-8.224-1.536,9.9,9.9,0,0,1-6.062-1.953l-.661-.589a10.156,10.156,0,0,0,1.719,2.286c3.339,3.4,9.479,4.641,14.37,4.62.432,0,.865,0,1.307-.026a42.4,42.4,0,0,0,4.646-.443q.781-.117,1.563-.266c4.943-.948,9.776-2.88,13.109-6.156a10.383,10.383,0,0,0,3.427-8.437l-.146-.026a11.458,11.458,0,0,1-3.281,5.651c-3.818,3.75-9.6,5.729-15.26,6.51-.521.073-1.073.135-1.6.188" transform="translate(-68.35 -85.084)" fill="#00fddc" fill-rule="evenodd"/>
  <path id="Path_23" data-name="Path 23" d="M232.908,185.924c3.333,3.276,8.172,5.208,13.109,6.156q.781.148,1.563.266a42.363,42.363,0,0,0,4.651.443c.437,0,.87.026,1.3.026,4.9,0,11.031-1.224,14.37-4.62a10.008,10.008,0,0,0,1.719-2.286l-.661.589a9.9,9.9,0,0,1-6.062,1.953,26.689,26.689,0,0,1-8.219,1.536h-1.146c-1.214,0-2.464-.073-3.734-.2q-.807-.078-1.609-.187c-5.656-.771-11.458-2.76-15.26-6.51a11.458,11.458,0,0,1-3.281-5.651l-.146.026a10.376,10.376,0,0,0,3.427,8.437" transform="translate(-109.942 -85.045)" fill="#00fddc" fill-rule="evenodd"/>
  <path id="Path_24" data-name="Path 24" d="M248.5,185.652c-5.729-3.828-10.6-9.99-18.75-8.406.057.26.125.521.2.776,7.766-1.4,12.536,4.3,18.021,8.1a12.258,12.258,0,0,0,8.854,2.38,12.256,12.256,0,0,1-5.068-1.042c-.422-.177-.839-.38-1.25-.594a22.52,22.52,0,0,1-2.031-1.219" transform="translate(-110.086 -84.83)" fill="#00fddc" fill-rule="evenodd"/>
  <path id="Path_25" data-name="Path 25" d="M192.518,171.2c-8.573-.443-13.609,5.427-18.229,9.729-1.974,2-4.656,3.948-6.859,4.266,2.323-.807,4.38-3.036,6.286-4.823,5.375-4.865,11.068-11.354,19.167-10.146l.521.234c.073.115.146.229.208.349s.188.344.271.521c-.469-.062-.927-.1-1.375-.12Z" transform="translate(-80.224 -81.518)" fill="#00fddc" fill-rule="evenodd"/>
  <path id="Path_26" data-name="Path 26" d="M175.778,185.652c5.729-3.828,10.609-9.99,18.75-8.406-.057.26-.125.521-.2.776-7.76-1.4-12.536,4.3-18.021,8.1a12.251,12.251,0,0,1-8.854,2.38,12.245,12.245,0,0,0,5.062-1.042c.427-.177.844-.38,1.255-.594a22.451,22.451,0,0,0,2.026-1.219" transform="translate(-80.234 -84.83)" fill="#00fddc" fill-rule="evenodd"/>
  <path id="Path_27" data-name="Path 27" d="M171.479,164.44c6.609-.74,9.62,3.234,9.75,3.495-1.771-3.724-5.729-5.307-9.75-4.854-5.792.646-10.286,4.63-13.13,9.505a27.146,27.146,0,0,1-1.682,2.542c-.271.359-.552.714-.849,1.042a13.665,13.665,0,0,1-2.833,2.521c-.25.156-.521.307-.766.448-3.328,1.76-6.641,1.161-9.7-.927L141,176.856a10.786,10.786,0,0,0,.859,2.125l.661.589c3.057,2.083,6.37,2.688,9.7.927a10.376,10.376,0,0,0,1.5-.969,15.441,15.441,0,0,0,2.677-2.7c.281-.359.552-.729.813-1.1.313-.458.615-.922.9-1.391h0l.24-.406c2.844-4.88,7.339-8.854,13.13-9.51" transform="translate(-67.56 -78.129)" fill="#00fddc" fill-rule="evenodd"/>
  <path id="Path_28" data-name="Path 28" d="M232.349,171.2c8.568-.443,13.6,5.427,18.229,9.729,1.974,2,4.656,3.948,6.865,4.266-2.328-.807-4.385-3.036-6.286-4.823-5.375-4.865-11.073-11.354-19.172-10.146l-.521.234c-.073.115-.141.229-.208.349s-.182.344-.266.521c.469-.062.922-.1,1.375-.12Z" transform="translate(-110.68 -81.518)" fill="#00fddc" fill-rule="evenodd"/>
  <path id="Path_29" data-name="Path 29" d="M240.724,164.44c-6.6-.74-9.62,3.25-9.724,3.495,1.766-3.724,5.729-5.307,9.745-4.854,5.792.646,10.286,4.63,13.135,9.505a26.094,26.094,0,0,0,1.677,2.542c.271.359.557.714.849,1.042a13.8,13.8,0,0,0,2.833,2.521c.25.156.521.307.766.448,3.333,1.76,6.641,1.161,9.7-.927l1.521-1.354a10.787,10.787,0,0,1-.859,2.125l-.661.589c-3.057,2.083-6.365,2.688-9.7.927a10.368,10.368,0,0,1-1.5-.969,15.241,15.241,0,0,1-2.672-2.7c-.286-.359-.557-.729-.812-1.1-.318-.458-.615-.922-.9-1.391h0l-.234-.406c-2.849-4.88-7.344-8.854-13.135-9.51" transform="translate(-110.685 -78.129)" fill="#00fddc" fill-rule="evenodd"/>
  <path id="Path_30" data-name="Path 30" d="M225.017,120.568a5.333,5.333,0,1,1-5.328-5.328,5.333,5.333,0,0,1,5.328,5.328Z" transform="translate(-102.707 -55.241)" fill="#00fddc"/>
  <path id="Path_31" data-name="Path 31" d="M224.155,113.735l15.1-12.5a1.563,1.563,0,0,0-1.995-2.406l-15.1,12.5a1.563,1.563,0,0,0,1.995,2.406" transform="translate(-106.178 -47.205)" fill="#00fddc"/>
  <path id="Path_32" data-name="Path 32" d="M221.6,98.772v13.156a1.562,1.562,0,0,0,3.125,0V98.772a1.562,1.562,0,0,0-3.125,0" transform="translate(-106.181 -46.602)" fill="#00fddc"/>
</svg>
